<svg id="Layer_1" data-name="Layer 1" xmlns="http://www.w3.org/2000/svg" viewBox="0 0 71.8 71.8"><defs><style>.cls-1{fill:#be6aff;}</style></defs><title>Lyrebird</title><path class="cls-1" d="M67.8,42.3a1.8,1.8,0,1,1,3.6,0,1.8,1.8,0,0,1-3.6,0Z" transform="translate(-14.1)"/><path class="cls-1" d="M85.9,18.6V53.2A18.6,18.6,0,0,1,67.3,71.8H59.6l1.5-1.7a43,43,0,0,0,6.7-12.9c3.4-10.6,7.9-10.6,7.9-10.6a24.3,24.3,0,0,1,6.1.6A15.3,15.3,0,0,0,76.9,43s-2-8.1-8.5-8.1c-11.7,0-9,13.2-12.4,12.6s-5-2.4-12.6-2.4S28.7,48.2,18.8,59.4h0c-3.6-1.8-4.4-3.9-4.4-4.1a8.3,8.3,0,0,0,4.3,1,28.1,28.1,0,0,1-.8-3.1c-4.7-2.8-3.6-6.2-3.6-6.2a5.8,5.8,0,0,0,3.1,3.1,27.3,27.3,0,0,1-.3-4.1,9.5,9.5,0,0,1-2.7-8.1,10.2,10.2,0,0,0,2.9,3.9v-.4a15.1,15.1,0,0,1,1-3.8,11.3,11.3,0,0,1,0-7.6,9.4,9.4,0,0,0,1.4,4.9,22.2,22.2,0,0,1,1.9-2.7A11,11,0,0,1,23.2,27a4.6,4.6,0,0,0,.6,3l2.4-2a8,8,0,0,1,2.4-6.3,6.4,6.4,0,0,0,.1,4.4l3.4-2.2a4.5,4.5,0,0,1-.1-3.1,2.8,2.8,0,0,0,1.9,2.1l1.9-1.1a6.7,6.7,0,0,1,.3-1.8,9.1,9.1,0,0,1,2.3-3.5,7.2,7.2,0,0,0-.6,3.6,8.8,8.8,0,0,0,2.3-.7l.5-.3.4-.4.9-.8.3-.5h.1a5.8,5.8,0,0,0,.9-2.5,6,6,0,0,0-5.1-6.7h-1a6,6,0,0,0-4.7,2.3,6.7,6.7,0,0,0-1.3,3,7.8,7.8,0,0,0,.4,3C25,20.8,18.1,26.2,14.1,34.8V18.6A18.6,18.6,0,0,1,32.7,0H67.3A18.6,18.6,0,0,1,85.9,18.6Z" transform="translate(-14.1)"/></svg>